<svg width="36" height="36" viewBox="0 0 36 36" fill="none" xmlns="http://www.w3.org/2000/svg">
<circle cx="18" cy="18" r="16.5" stroke="white" stroke-width="3"/>
<mask id="path-2-inside-1" fill="white">
<path fill-rule="evenodd" clip-rule="evenodd" d="M18 35C27.3888 35 35 27.3888 35 18C35 8.61116 27.3888 1 18 1C16.8474 1 15.7215 1.11471 14.6333 1.33333H18V35Z"/>
</mask>
<path fill-rule="evenodd" clip-rule="evenodd" d="M18 35C27.3888 35 35 27.3888 35 18C35 8.61116 27.3888 1 18 1C16.8474 1 15.7215 1.11471 14.6333 1.33333H18V35Z" fill="white"/>
<path d="M18 35H15V38H18V35ZM14.6333 1.33333L14.0424 -1.6079L14.6333 4.33333V1.33333ZM18 1.33333H21V-1.66667H18V1.33333ZM32 18C32 25.732 25.732 32 18 32V38C29.0457 38 38 29.0457 38 18H32ZM18 4C25.732 4 32 10.268 32 18H38C38 6.95431 29.0457 -2 18 -2V4ZM15.2242 4.27457C16.119 4.09481 17.0469 4 18 4V-2C16.6479 -2 15.3241 -1.86539 14.0424 -1.6079L15.2242 4.27457ZM14.6333 4.33333H18V-1.66667H14.6333V4.33333ZM15 1.33333V35H21V1.33333H15Z" fill="white" mask="url(#path-2-inside-1)"/>
</svg>
